<?xml version="1.0" encoding="UTF-8" standalone="no"?>
<svg
   width="4096"
   height="2048"
   version="1.1"
   id="svg6"
   sodipodi:docname="geqo-logo.svg"
   xml:space="preserve"
   inkscape:version="1.4 (86a8ad7, 2024-10-11)"
   xmlns:inkscape="http://www.inkscape.org/namespaces/inkscape"
   xmlns:sodipodi="http://sodipodi.sourceforge.net/DTD/sodipodi-0.dtd"
   xmlns="http://www.w3.org/2000/svg"
   xmlns:svg="http://www.w3.org/2000/svg"><defs
     id="defs6"><inkscape:path-effect
       effect="bend_path"
       id="path-effect5"
       is_visible="true"
       lpeversion="1"
       bendpath="m 960.78407,1488.1019 c 980.97543,109.708 993.54123,108.5964 1955.07693,0"
       prop_scale="1"
       scale_y_rel="false"
       vertical="false"
       hide_knot="false"
       bendpath-nodetypes="cc" /><inkscape:path-effect
       effect="mirror_symmetry"
       start_point="512,0"
       end_point="512,1024"
       center_point="512,512"
       id="path-effect24"
       is_visible="true"
       lpeversion="1.2"
       lpesatellites=""
       mode="vertical"
       discard_orig_path="false"
       fuse_paths="false"
       oposite_fuse="false"
       split_items="false"
       split_open="false"
       link_styles="false" /><inkscape:path-effect
       effect="mirror_symmetry"
       start_point="499.30135,144.96615"
       end_point="499.30131,920.45095"
       center_point="499.30133,532.70855"
       id="path-effect23"
       is_visible="true"
       lpeversion="1.2"
       lpesatellites=""
       mode="vertical"
       discard_orig_path="false"
       fuse_paths="false"
       oposite_fuse="false"
       split_items="false"
       split_open="false"
       link_styles="false" /><inkscape:path-effect
       effect="mirror_symmetry"
       start_point="512,-199.94272"
       end_point="512,1130.5293"
       center_point="512,465.29328"
       id="path-effect21"
       is_visible="true"
       lpeversion="1.2"
       lpesatellites=""
       mode="vertical"
       discard_orig_path="false"
       fuse_paths="false"
       oposite_fuse="false"
       split_items="false"
       split_open="false"
       link_styles="false" /><inkscape:path-effect
       effect="mirror_symmetry"
       start_point="535.25689,-211.02961"
       end_point="535.25689,1119.4424"
       center_point="535.25689,454.20639"
       id="path-effect20"
       is_visible="true"
       lpeversion="1.2"
       lpesatellites=""
       mode="vertical"
       discard_orig_path="false"
       fuse_paths="false"
       oposite_fuse="false"
       split_items="false"
       split_open="false"
       link_styles="false" /><inkscape:path-effect
       effect="mirror_symmetry"
       start_point="496.8138,-15.714591"
       end_point="496.8138,1008.2854"
       center_point="496.8138,496.28541"
       id="path-effect16"
       is_visible="true"
       lpeversion="1.2"
       lpesatellites=""
       mode="vertical"
       discard_orig_path="false"
       fuse_paths="false"
       oposite_fuse="false"
       split_items="false"
       split_open="false"
       link_styles="false" /><inkscape:path-effect
       effect="mirror_symmetry"
       start_point="532.30236,-194.99673"
       end_point="532.30236,1135.4753"
       center_point="532.30236,470.23927"
       id="path-effect15"
       is_visible="true"
       lpeversion="1.2"
       lpesatellites=""
       mode="vertical"
       discard_orig_path="false"
       fuse_paths="false"
       oposite_fuse="false"
       split_items="false"
       split_open="false"
       link_styles="false" /><inkscape:path-effect
       effect="mirror_symmetry"
       start_point="514.4043,531.85156"
       end_point="514.4043,807.25742"
       center_point="514.4043,669.55449"
       id="path-effect14"
       is_visible="true"
       lpeversion="1.2"
       lpesatellites=""
       mode="free"
       discard_orig_path="false"
       fuse_paths="false"
       oposite_fuse="false"
       split_items="false"
       split_open="false"
       link_styles="false" /><inkscape:path-effect
       effect="slice"
       start_point="514.4043,531.85142"
       end_point="514.4043,807.26039"
       center_point="514.4043,669.5559"
       id="path-effect13"
       is_visible="true"
       lpeversion="1.2"
       lpesatellites=""
       allow_transforms="true" /><inkscape:path-effect
       effect="slice"
       start_point="903.64062,669.5559"
       end_point="125.16797,669.5559"
       center_point="514.4043,669.5559"
       id="path-effect12"
       is_visible="true"
       lpeversion="1.2"
       lpesatellites=""
       allow_transforms="true" /><inkscape:path-effect
       effect="mirror_symmetry"
       start_point="514.4043,76.746091"
       end_point="514.4043,826.58551"
       center_point="514.4043,451.6658"
       id="path-effect4"
       is_visible="true"
       lpeversion="1.2"
       lpesatellites=""
       mode="free"
       discard_orig_path="false"
       fuse_paths="false"
       oposite_fuse="false"
       split_items="false"
       split_open="false"
       link_styles="false" /><inkscape:path-effect
       effect="slice"
       start_point="514.4043,826.58551"
       end_point="514.4043,76.746094"
       center_point="514.4043,451.6658"
       id="path-effect3"
       is_visible="true"
       lpeversion="1.2"
       lpesatellites="#path3"
       allow_transforms="true" /><inkscape:path-effect
       effect="mirror_symmetry"
       start_point="514.4043,76.746094"
       end_point="514.4043,826.58551"
       center_point="514.4043,451.6658"
       id="path-effect2"
       is_visible="true"
       lpeversion="1.2"
       lpesatellites=""
       mode="X"
       discard_orig_path="false"
       fuse_paths="false"
       oposite_fuse="false"
       split_items="false"
       split_open="false"
       link_styles="false" /><inkscape:path-effect
       effect="mirror_symmetry"
       start_point="51.404297,451.6658"
       end_point="977.4043,451.6658"
       center_point="514.4043,451.6658"
       id="path-effect1"
       is_visible="true"
       lpeversion="1.2"
       lpesatellites=""
       mode="free"
       discard_orig_path="false"
       fuse_paths="false"
       oposite_fuse="false"
       split_items="false"
       split_open="false"
       link_styles="false" /></defs><sodipodi:namedview
     id="namedview6"
     pagecolor="#ffffff"
     bordercolor="#000000"
     borderopacity="0.25"
     inkscape:showpageshadow="2"
     inkscape:pageopacity="0.0"
     inkscape:pagecheckerboard="0"
     inkscape:deskcolor="#d1d1d1"
     showgrid="false"
     inkscape:zoom="0.19702149"
     inkscape:cx="1411.0136"
     inkscape:cy="1281.5861"
     inkscape:window-width="1920"
     inkscape:window-height="1009"
     inkscape:window-x="-8"
     inkscape:window-y="-8"
     inkscape:window-maximized="1"
     inkscape:current-layer="svg6" /><g
     id="g31"
     transform="matrix(1.1190084,0,0,1.1190084,1472.3773,149.38027)"
     style="fill:#ffffff;fill-opacity:1;stroke:#ffffff;stroke-opacity:1"><path
       style="display:inline;fill:#ffffff;fill-opacity:1;stroke:#ffffff;stroke-width:4.805;stroke-linecap:round;stroke-linejoin:round;stroke-dasharray:none;stroke-opacity:1;paint-order:stroke fill markers"
       d="M 903.63973,504.18707 889.15749,552.78452 701.06566,722.5909 515.30155,793.18931 318.17595,724.17702 141.56223,553.06891 118.97494,465.84894 350.85005,618.85856 697.89342,616.95521 Z"
       id="path19"
       inkscape:label="InnerMouth"
       sodipodi:nodetypes="cccccccccc"
       transform="translate(5e-6,124.08072)" /><path
       id="path22"
       d="m 514.4043,160.25586 c -16.33334,0 -32.66667,1.16666 -49,3.5 -13.02747,-29.96316 -27.99575,-58.95589 -44.8418,-87.009766 h -9.16602 c -39.77377,9.296079 -78.14386,22.522424 -114.99218,40.009766 0.66666,34 3.33333,68 8,102 -32,18 -61.33334,39.33333 -88,64 -26,-18 -53.33334,-33.66667 -82,-47 -32.00001,32.66667 -59.66667,68.66667 -83.000003,108 17.333333,28 58.840143,62.61338 78.840153,88.61338 -1.69186,65.29952 -25.32084,98.05342 -5.07559,195.89855 151.51967,123.91248 179.53681,179.25745 389.17936,197.80626 z m 0,0 c 16.33334,0 32.66667,1.16666 49,3.5 13.02747,-29.96316 27.99575,-58.95589 44.8418,-87.009766 h 9.16602 c 39.77377,9.296079 78.14386,22.522424 114.99218,40.009766 -0.66666,34 -3.33333,68 -8,102 32,18 61.33334,39.33333 88,64 26,-18 53.33334,-33.66667 82,-47 32.00001,32.66667 59.66667,68.66667 83,108 -17.33333,28 -58.84014,62.61338 -78.84015,88.61338 1.69186,65.29952 25.32084,98.05342 5.07559,195.89855 C 752.12007,752.18027 724.10293,807.52524 514.46038,826.07405 Z"
       style="display:inline;fill:#ffffff;fill-opacity:1;stroke:#ffffff;stroke-width:4.80506;stroke-linejoin:round;stroke-opacity:1;paint-order:stroke fill markers"
       sodipodi:nodetypes="ccccccccccccc"
       inkscape:label="HeadTop" /><path
       style="display:inline;fill:#ffffff;fill-opacity:1;stroke:#ffffff;stroke-width:1;stroke-linecap:round;stroke-linejoin:miter;stroke-miterlimit:3.3;stroke-dasharray:none;stroke-opacity:1;paint-order:normal"
       d="m 328.77963,331.24592 c 58.36927,266.4684 81.83292,336.81294 81.83292,336.81294 0,0 12.92857,-61.74374 0.2396,-206.39801 C 398.16318,317.00657 328.77963,331.24592 328.77963,331.24592 Z m 366.44074,0 c -58.36927,266.4684 -81.83292,336.81294 -81.83292,336.81294 0,0 -12.92857,-61.74374 -0.2396,-206.39801 12.68897,-144.65428 82.07252,-130.41493 82.07252,-130.41493 z"
       id="path24"
       sodipodi:nodetypes="ccsc"
       inkscape:label="EyeShadow"
       transform="matrix(1,0,0,0.76965167,0,153.88625)" /><path
       id="path25"
       style="display:inline;fill:#ffffff;fill-opacity:1;stroke:#ffffff;stroke-width:4.805;stroke-linecap:butt;stroke-linejoin:miter;stroke-miterlimit:3.6;stroke-dasharray:none;stroke-opacity:1;paint-order:stroke fill markers"
       d="m 514.4043,729.9668 v 0 c -140.11601,4.52499 -222.21965,-94.85902 -373.73932,-218.7715 5.29798,64.39415 69.48344,109.36107 92.18285,131.5516 87.71401,85.74759 123.28775,129.02415 281.10785,129.80554 z m 0,0 v 0 c 140.11601,4.52499 222.21965,-94.85902 373.73932,-218.7715 -5.29798,64.39415 -69.48344,109.36107 -92.18285,131.5516 -87.71401,85.74759 -123.28775,129.02415 -281.10785,129.80554 z"
       sodipodi:nodetypes="cccscc"
       transform="translate(0.89725078,165.95433)" /><path
       style="fill:#ffffff;fill-opacity:1;stroke:#ffffff;stroke-width:5;stroke-linecap:butt;stroke-linejoin:miter;stroke-miterlimit:3.6;stroke-dasharray:none;stroke-opacity:1;paint-order:normal"
       d="M 327.19351,435.79429 C 284.61594,447.08736 202.59569,539.6456 202.59569,539.6456 L 183.48676,425.74312 c 0,0 57.57468,-56.64597 108.11812,-51.59163 62.8072,6.28072 97.5219,66.60818 97.5219,66.60818 z m 369.61298,0 c 42.57757,11.29307 124.59782,103.85131 124.59782,103.85131 l 19.10893,-113.90248 c 0,0 -57.57468,-56.64597 -108.11812,-51.59163 -62.8072,6.28072 -97.5219,66.60818 -97.5219,66.60818 z"
       id="path26"
       sodipodi:nodetypes="cccscc" /><path
       style="display:inline;fill:#ffffff;fill-opacity:1;stroke:#ffffff;stroke-width:4.805;stroke-linecap:round;stroke-linejoin:round;stroke-dasharray:none;stroke-opacity:1;paint-order:stroke fill markers"
       d="m 328.77963,331.24592 c 0,0 67.61832,64.78348 62.67513,154.74169 -4.47901,81.5111 -38.30329,142.9158 -38.30329,142.9158 0,0 -110.40135,-24.9846 -125.17784,-127.6905 -20.60037,-143.18553 100.806,-169.96699 100.806,-169.96699 z m 407.04545,0 c 0,0 -67.61832,64.78348 -62.67513,154.74169 4.47901,81.5111 38.30329,142.9158 38.30329,142.9158 0,0 110.40135,-24.9846 125.17784,-127.6905 20.60037,-143.18553 -100.806,-169.96699 -100.806,-169.96699 z"
       id="path27"
       sodipodi:nodetypes="cscsc"
       inkscape:label="Eyes"
       transform="matrix(1,0,0,0.76965167,-20.302355,150.07956)" /><path
       style="display:inline;fill:#ffffff;fill-opacity:1;stroke:#ffffff;stroke-width:4.805;stroke-linecap:round;stroke-linejoin:round;stroke-dasharray:none;stroke-opacity:1;paint-order:stroke fill markers"
       d="m 418.75474,664.90571 c -23.4746,10.15117 6.85664,68.24795 6.85664,68.24795 l 19.13707,-66.43479 z m 161.09317,10e-6 c 23.4746,10.15117 -6.85665,68.24795 -6.85665,68.24795 l -19.13706,-66.4348 z"
       id="path28"
       inkscape:label="NostrilShadows"
       sodipodi:nodetypes="cccc"
       transform="matrix(1,0,4.3532802e-8,1.3204643,12.698647,-191.42262)" /><path
       style="display:inline;fill:#ffffff;fill-opacity:1;stroke:#ffffff;stroke-width:4.805;stroke-linecap:round;stroke-linejoin:round;stroke-dasharray:none;stroke-opacity:1;paint-order:stroke fill markers"
       d="m 418.75474,664.90574 c -23.4746,10.15117 5.06215,56.69655 5.06215,56.69655 l 20.93156,-54.88342 c -9.78613,2.19952 -12.20488,5.45279 -25.99371,-1.81313 z m 156.11812,0 c 23.4746,10.15117 -5.06215,56.69655 -5.06215,56.69655 l -20.93156,-54.88342 c 9.78613,2.19952 12.20488,5.45279 25.99371,-1.81313 z"
       id="path29"
       inkscape:label="Nostrils"
       sodipodi:nodetypes="cccc"
       transform="translate(15.1862,15.714591)" /><path
       style="display:inline;fill:#ffffff;fill-opacity:1;stroke:#ffffff;stroke-width:5;stroke-linecap:round;stroke-linejoin:round;stroke-miterlimit:1;stroke-dasharray:none;stroke-opacity:1;paint-order:normal"
       d="M 330.99253,595.80049 C 282.54126,565.49017 193.87712,433.90222 315.52988,328.05327 c -48.5321,112.48632 18.80355,236.03311 15.46265,267.74722 z m 408.52872,0 C 787.97252,565.49017 876.63666,433.90222 754.9839,328.05327 803.516,440.53959 736.18035,564.08638 739.52125,595.80049 Z"
       id="path30"
       sodipodi:nodetypes="ccc"
       transform="matrix(1,0,0,0.76965167,-23.256889,162.41929)" /><path
       style="display:inline;fill:#ffffff;fill-opacity:1;stroke:#ffffff;stroke-width:4.805;stroke-linecap:round;stroke-linejoin:round;stroke-dasharray:none;stroke-opacity:1;paint-order:stroke fill markers"
       d="M 377.74893,678.14219 C 248.19388,607.50563 208.88137,574.98303 177.88457,548.4339 c -96.333339,-82.51065 55.62271,-65.40667 57.9797,-167.8421 1.52579,-66.31098 -32.4916,-82.13008 -53.68853,-89.76711 16.40736,41.30058 13.34825,49.76706 14.46711,89.25719 1.16891,41.25674 -32.14513,45.64477 -57.74914,67.28808 -28.00152,23.66994 -22.38598,66.9053 2.66852,105.69895 87.59498,87.38679 175.34408,180.07526 236.1867,125.07328 z"
       id="path31"
       sodipodi:nodetypes="csscsscc"
       inkscape:label="Tongue"
       transform="translate(5e-6,124.08072)" /></g><g
     id="g1"
     transform="translate(1533.5957,207.52119)"><path
       style="display:inline;fill:#6a3333;fill-opacity:1;stroke:none;stroke-width:4.805;stroke-linecap:round;stroke-linejoin:round;stroke-dasharray:none;stroke-opacity:1;paint-order:stroke fill markers"
       d="M 903.63973,504.18707 889.15749,552.78452 701.06566,722.5909 515.30155,793.18931 318.17595,724.17702 141.56223,553.06891 118.97494,465.84894 350.85005,618.85856 697.89342,616.95521 Z"
       id="path17"
       inkscape:label="InnerMouth"
       sodipodi:nodetypes="cccccccccc"
       transform="translate(5e-6,124.08072)" /><path
       id="path3"
       d="m 514.4043,160.25586 c -16.33334,0 -32.66667,1.16666 -49,3.5 -13.02747,-29.96316 -27.99575,-58.95589 -44.8418,-87.009766 h -9.16602 c -39.77377,9.296079 -78.14386,22.522424 -114.99218,40.009766 0.66666,34 3.33333,68 8,102 -32,18 -61.33334,39.33333 -88,64 -26,-18 -53.33334,-33.66667 -82,-47 -32.00001,32.66667 -59.66667,68.66667 -83.000003,108 17.333333,28 58.840143,62.61338 78.840153,88.61338 -1.69186,65.29952 -25.32084,98.05342 -5.07559,195.89855 151.51967,123.91248 179.53681,179.25745 389.17936,197.80626 z m 0,0 c 16.33334,0 32.66667,1.16666 49,3.5 13.02747,-29.96316 27.99575,-58.95589 44.8418,-87.009766 h 9.16602 c 39.77377,9.296079 78.14386,22.522424 114.99218,40.009766 -0.66666,34 -3.33333,68 -8,102 32,18 61.33334,39.33333 88,64 26,-18 53.33334,-33.66667 82,-47 32.00001,32.66667 59.66667,68.66667 83,108 -17.33333,28 -58.84014,62.61338 -78.84015,88.61338 1.69186,65.29952 25.32084,98.05342 5.07559,195.89855 C 752.12007,752.18027 724.10293,807.52524 514.46038,826.07405 Z"
       style="display:inline;fill:#478cbf;fill-opacity:1;stroke:#478cbf;stroke-width:4.80506;stroke-linejoin:round;stroke-opacity:1;paint-order:stroke fill markers"
       sodipodi:nodetypes="ccccccccccccc"
       inkscape:label="HeadTop" /><path
       style="display:inline;fill:#3475a5;fill-opacity:1;stroke:none;stroke-width:1;stroke-linecap:round;stroke-linejoin:miter;stroke-miterlimit:3.3;stroke-dasharray:none;stroke-opacity:1;paint-order:normal"
       d="m 328.77963,331.24592 c 58.36927,266.4684 81.83292,336.81294 81.83292,336.81294 0,0 12.92857,-61.74374 0.2396,-206.39801 C 398.16318,317.00657 328.77963,331.24592 328.77963,331.24592 Z m 366.44074,0 c -58.36927,266.4684 -81.83292,336.81294 -81.83292,336.81294 0,0 -12.92857,-61.74374 -0.2396,-206.39801 12.68897,-144.65428 82.07252,-130.41493 82.07252,-130.41493 z"
       id="path20"
       sodipodi:nodetypes="ccsc"
       inkscape:label="EyeShadow"
       transform="matrix(1,0,0,0.76965167,0,153.88625)" /><path
       id="path3-4"
       style="display:inline;fill:#478cbf;fill-opacity:1;stroke:#478cbf;stroke-width:4.805;stroke-linecap:butt;stroke-linejoin:miter;stroke-miterlimit:3.6;stroke-dasharray:none;stroke-opacity:1;paint-order:stroke fill markers"
       d="m 514.4043,729.9668 v 0 c -140.11601,4.52499 -222.21965,-94.85902 -373.73932,-218.7715 5.29798,64.39415 69.48344,109.36107 92.18285,131.5516 87.71401,85.74759 123.28775,129.02415 281.10785,129.80554 z m 0,0 v 0 c 140.11601,4.52499 222.21965,-94.85902 373.73932,-218.7715 -5.29798,64.39415 -69.48344,109.36107 -92.18285,131.5516 -87.71401,85.74759 -123.28775,129.02415 -281.10785,129.80554 z"
       sodipodi:nodetypes="cccscc"
       transform="translate(0.89725078,165.95433)" /><path
       style="fill:#3475a5;fill-opacity:1;stroke:none;stroke-width:5;stroke-linecap:butt;stroke-linejoin:miter;stroke-miterlimit:3.6;stroke-dasharray:none;stroke-opacity:1;paint-order:normal"
       d="M 327.19351,435.79429 C 284.61594,447.08736 202.59569,539.6456 202.59569,539.6456 L 183.48676,425.74312 c 0,0 57.57468,-56.64597 108.11812,-51.59163 62.8072,6.28072 97.5219,66.60818 97.5219,66.60818 z m 369.61298,0 c 42.57757,11.29307 124.59782,103.85131 124.59782,103.85131 l 19.10893,-113.90248 c 0,0 -57.57468,-56.64597 -108.11812,-51.59163 -62.8072,6.28072 -97.5219,66.60818 -97.5219,66.60818 z"
       id="path23"
       sodipodi:nodetypes="cccscc" /><path
       style="display:inline;fill:#ffffff;fill-opacity:1;stroke:#ffffff;stroke-width:4.805;stroke-linecap:round;stroke-linejoin:round;stroke-dasharray:none;stroke-opacity:1;paint-order:stroke fill markers"
       d="m 328.77963,331.24592 c 0,0 67.61832,64.78348 62.67513,154.74169 -4.47901,81.5111 -38.30329,142.9158 -38.30329,142.9158 0,0 -110.40135,-24.9846 -125.17784,-127.6905 -20.60037,-143.18553 100.806,-169.96699 100.806,-169.96699 z m 407.04545,0 c 0,0 -67.61832,64.78348 -62.67513,154.74169 4.47901,81.5111 38.30329,142.9158 38.30329,142.9158 0,0 110.40135,-24.9846 125.17784,-127.6905 20.60037,-143.18553 -100.806,-169.96699 -100.806,-169.96699 z"
       id="path15"
       sodipodi:nodetypes="cscsc"
       inkscape:label="Eyes"
       transform="matrix(1,0,0,0.76965167,-20.302355,150.07956)" /><path
       style="display:inline;fill:#3475a5;fill-opacity:1;stroke:none;stroke-width:4.805;stroke-linecap:round;stroke-linejoin:round;stroke-dasharray:none;stroke-opacity:1;paint-order:stroke fill markers"
       d="m 418.75474,664.90571 c -23.4746,10.15117 6.85664,68.24795 6.85664,68.24795 l 19.13707,-66.43479 z m 161.09317,10e-6 c 23.4746,10.15117 -6.85665,68.24795 -6.85665,68.24795 l -19.13706,-66.4348 z"
       id="path21"
       inkscape:label="NostrilShadows"
       sodipodi:nodetypes="cccc"
       transform="matrix(1,0,4.3532802e-8,1.3204643,12.698647,-191.42262)" /><path
       style="display:inline;fill:#ffffff;fill-opacity:1;stroke:#ffffff;stroke-width:4.805;stroke-linecap:round;stroke-linejoin:round;stroke-dasharray:none;stroke-opacity:1;paint-order:stroke fill markers"
       d="m 418.75474,664.90574 c -23.4746,10.15117 5.06215,56.69655 5.06215,56.69655 l 20.93156,-54.88342 c -9.78613,2.19952 -12.20488,5.45279 -25.99371,-1.81313 z m 156.11812,0 c 23.4746,10.15117 -5.06215,56.69655 -5.06215,56.69655 l -20.93156,-54.88342 c 9.78613,2.19952 12.20488,5.45279 25.99371,-1.81313 z"
       id="path16"
       inkscape:label="Nostrils"
       sodipodi:nodetypes="cccc"
       transform="translate(15.1862,15.714591)" /><path
       style="display:inline;fill:#000000;fill-opacity:1;stroke:#000000;stroke-width:5;stroke-linecap:round;stroke-linejoin:round;stroke-miterlimit:1;stroke-dasharray:none;stroke-opacity:1;paint-order:normal"
       d="M 330.99253,595.80049 C 282.54126,565.49017 193.87712,433.90222 315.52988,328.05327 c -48.5321,112.48632 18.80355,236.03311 15.46265,267.74722 z m 408.52872,0 C 787.97252,565.49017 876.63666,433.90222 754.9839,328.05327 803.516,440.53959 736.18035,564.08638 739.52125,595.80049 Z"
       id="path18"
       sodipodi:nodetypes="ccc"
       transform="matrix(1,0,0,0.76965167,-23.256889,162.41929)" /><path
       style="display:inline;fill:#ff6b6a;fill-opacity:1;stroke:#ff6b6a;stroke-width:4.805;stroke-linecap:round;stroke-linejoin:round;stroke-dasharray:none;stroke-opacity:1;paint-order:stroke fill markers"
       d="M 377.74893,678.14219 C 248.19388,607.50563 208.88137,574.98303 177.88457,548.4339 c -96.333339,-82.51065 55.62271,-65.40667 57.9797,-167.8421 1.52579,-66.31098 -32.4916,-82.13008 -53.68853,-89.76711 16.40736,41.30058 13.34825,49.76706 14.46711,89.25719 1.16891,41.25674 -32.14513,45.64477 -57.74914,67.28808 -28.00152,23.66994 -22.38598,66.9053 2.66852,105.69895 87.59498,87.38679 175.34408,180.07526 236.1867,125.07328 z"
       id="path14"
       sodipodi:nodetypes="csscsscc"
       inkscape:label="Tongue"
       transform="translate(5e-6,124.08072)" /></g><g
     id="text2"
     style="font-size:132.073px;font-family:Notable;-inkscape-font-specification:Notable;text-align:center;text-anchor:middle;stroke:#000000;stroke-width:5.28292;stroke-miterlimit:3.6;stroke-opacity:1;fill:#b9b9b9;fill-opacity:1"
     transform="matrix(1.0565837,0,0,0.94644655,0,-30.453535)"
     aria-label="Godot Environment&#10;Query Orchestrator"
     inkscape:path-effect="#path-effect5"><path
       d="m 1053.5651,1411.4258 c 1.7284,-15.4886 6.8318,-26.5691 15.3068,-33.2432 5.4614,-4.3523 11.3069,-6.9788 17.5366,-7.8798 6.23,-0.9011 14.257,-0.8051 24.0813,0.2862 9.1224,1.0133 16.3723,2.4814 21.7516,4.4061 5.4768,1.8469 9.7849,5.0254 12.9255,9.5361 2.6042,3.7426 4.4689,8.1564 5.594,13.2413 1.2225,5.0071 1.7096,9.8444 1.4608,14.5119 -2.5001,-0.276 -5.0003,-0.5521 -7.5005,-0.8284 0.084,-3.977 -0.4358,-8.1094 -1.5599,-12.3971 -1.0267,-4.3656 -2.998,-8.2156 -5.9137,-11.5503 -2.906,-3.4221 -6.8582,-5.41 -11.8576,-5.9642 -4.6486,-0.5153 -8.7363,1.1129 -12.2633,4.885 -3.0302,3.2958 -5.4464,7.8555 -7.2482,13.6795 -1.6363,5.1336 -2.7901,10.7195 -3.461,16.7578 -1.0987,9.8887 -0.7887,18.2948 0.9309,25.2188 2.3056,8.8492 6.8835,13.6541 13.7323,14.4134 l 4.031,-36.3615 c 13.4269,1.4885 26.8519,2.9729 40.275,4.4521 l -4.9473,44.8972 c -12.6419,-1.3931 -26.9783,-2.8002 -42.9973,-4.2223 -4.4395,-0.448 -8.8791,-0.8965 -13.3188,-1.3454 -9.6599,-1.073 -17.4181,-2.8666 -23.273,-5.3789 -5.7576,-2.5901 -10.549,-6.2692 -14.3741,-11.0368 -7.5723,-9.438 -10.5419,-21.464 -8.9111,-36.0775 z m 171.2868,66.2144 c -11.7647,-1.2784 -22.1932,-4.2326 -31.2817,-8.8587 -9.0887,-4.6262 -16.013,-10.7457 -20.7727,-18.3552 -4.6624,-7.6875 -6.4475,-16.4763 -5.3589,-26.3661 1.0791,-9.8023 4.7673,-17.8998 11.0606,-24.2944 6.2934,-6.3946 14.3252,-10.8714 24.0942,-13.4338 9.8665,-2.6404 20.6666,-3.3214 32.4033,-2.0459 11.6491,1.2659 21.9578,4.2408 30.9316,8.9276 9.0705,4.6086 15.9453,10.7038 20.626,18.2894 4.7679,7.5946 6.6308,16.2946 5.583,26.1001 -1.0571,9.8932 -4.7261,18.0905 -11.0131,24.59 -6.1899,6.4212 -14.2186,10.9173 -24.0857,13.4845 -9.7794,2.5767 -20.5096,3.2315 -32.1866,1.9625 z m 0.8418,-7.7466 c 3.6868,0.4006 6.5885,-0.9673 8.7046,-4.1032 1.7674,-2.3769 3.2652,-6.7755 4.4936,-13.1962 0.6332,-3.3855 1.5046,-10.1986 2.6145,-20.4405 1.1193,-10.3291 1.6922,-17.6626 1.7189,-21.9991 0.3063,-5.2806 -0.2258,-9.368 -1.596,-12.2621 -1.3915,-3.5164 -3.8827,-5.4693 -7.4744,-5.8597 -3.6794,-0.3998 -6.62,0.9629 -8.8223,4.0887 -1.7754,2.4637 -3.1733,6.3414 -4.1933,11.633 -0.8465,4.5132 -1.8183,11.8033 -2.9152,21.8691 -1.2399,11.3791 -1.8522,18.2204 -1.8369,20.5251 -0.3071,6.0779 0.1671,10.6908 1.423,13.839 1.4809,3.5268 4.109,5.4957 7.8835,5.9059 z m 77.7749,-77.4363 c 23.0225,2.4544 46.0153,4.8809 68.9799,7.2622 12.4865,1.2948 22.7997,6.8663 30.9686,16.7253 8.0715,9.936 11.482,21.2098 10.2093,33.8242 -1.2904,12.79 -6.8952,23.2435 -16.8427,31.3477 -9.9376,8.0159 -21.235,11.3719 -33.8703,10.0617 -23.0771,-2.3929 -46.1597,-4.829 -69.2492,-7.2913 z m 44.9723,90.0129 c 5.0002,0.5224 8.7654,-0.7238 11.2944,-3.7363 2.4323,-2.9341 4.2105,-7.2641 5.3358,-12.9899 0.8288,-3.7209 1.7468,-10.441 2.7548,-20.1628 0.7809,-7.5317 1.263,-14.7408 1.447,-21.6263 0.011,-5.2215 -0.8909,-9.2988 -2.7059,-12.2316 -1.848,-3.4675 -5.2177,-5.4556 -10.1118,-5.9669 -2.6219,-0.2739 -5.2442,-0.5483 -7.8668,-0.8233 l -8.0429,76.7108 c 2.6319,0.276 5.2637,0.5514 7.8954,0.8263 z m 127.9579,21.2186 c -11.7512,-1.1235 -22.1912,-3.953 -31.3062,-8.476 -9.1156,-4.5233 -16.0826,-10.5708 -20.8995,-18.1313 -4.7212,-7.6401 -6.5778,-16.4106 -5.5824,-26.3104 0.9866,-9.8122 4.5863,-17.9447 10.7846,-24.4039 6.1984,-6.4592 14.1359,-11.0218 23.8091,-13.6984 9.7695,-2.7558 20.4762,-3.5713 32.1308,-2.457 11.5676,1.106 21.8223,3.9259 30.7829,8.4698 9.0556,4.4642 15.9607,10.4407 20.7221,17.9433 4.8476,7.5093 6.8415,16.1745 5.9628,25.9962 -0.8867,9.91 -4.3964,18.1712 -10.5504,24.7769 -6.058,6.5253 -13.9867,11.1532 -23.7853,13.8711 -9.7105,2.7259 -20.4048,3.5348 -32.0685,2.4197 z m 0.7416,-7.7569 c 3.6809,0.3519 6.5562,-1.0554 8.624,-4.22 1.7304,-2.401 3.1644,-6.8196 4.3029,-13.2568 0.5859,-3.3945 1.3633,-10.2178 2.333,-20.4744 0.9779,-10.3427 1.4519,-17.6845 1.4226,-22.0199 0.2361,-5.2839 -0.3445,-9.3634 -1.7406,-12.2373 -1.4251,-3.4961 -3.9205,-5.4136 -7.4887,-5.7547 -3.6552,-0.3495 -6.5571,1.0518 -8.7069,4.206 -1.7337,2.4865 -3.0773,6.3819 -4.0295,11.6857 -0.7888,4.5229 -1.6706,11.8255 -2.6444,21.9033 -1.1008,11.3938 -1.63,18.2411 -1.5875,20.5457 -0.2341,6.0813 0.2932,10.6874 1.5831,13.8194 1.5188,3.5076 4.1634,5.4427 7.932,5.803 z m 90.3048,-69.5872 c -3.8511,-0.3348 -7.7035,-0.6724 -11.5573,-1.0125 -7.5664,-0.6685 -15.1351,-1.3469 -22.7065,-2.0347 l 0.7052,-7.7603 c 7.5652,0.6872 15.1276,1.3651 22.6874,2.0329 30.4817,2.6903 60.8712,5.2166 91.17,7.5031 l -0.5859,7.7703 c -11.3968,-0.86 -22.8055,-1.7538 -34.2262,-2.6775 l -6.8228,84.3853 c -15.3305,-1.2396 -30.665,-2.5313 -46.0036,-3.8657 2.4466,-28.1137 4.8931,-56.2273 7.3397,-84.3409 z m 141.7398,3.0209 c 18.2313,1.1641 36.4297,2.2219 54.5957,3.1567 12.9217,0.6655 25.8339,1.2687 38.7358,1.8056 l -0.324,7.7857 c -12.9285,-0.5381 -25.8666,-1.1425 -38.8135,-1.8094 -3.1113,-0.1601 -6.2235,-0.3238 -9.3366,-0.4911 l -1.8387,34.1572 c 3.138,0.1686 6.2753,0.3338 9.412,0.4953 4.8105,0.248 9.6203,0.4873 14.4293,0.718 l -0.3799,7.9153 c -4.8187,-0.2311 -9.6379,-0.4709 -14.4579,-0.7194 -3.1426,-0.1619 -6.2857,-0.3274 -9.4294,-0.4964 l -1.8599,34.5528 c 3.1688,0.1704 6.3373,0.3373 9.5056,0.5007 13.1943,0.6805 26.3874,1.2972 39.5785,1.8462 l -0.3294,7.9176 c -13.2183,-0.5501 -26.4377,-1.168 -39.6575,-1.8499 -18.5677,-0.9575 -37.1403,-2.0376 -55.7183,-3.2234 z m 100.6259,5.2588 c 12.539,0.4976 25.0683,0.9318 37.587,1.2991 11.9826,15.7666 24.118,31.4717 36.4181,47.1094 l 0.8508,-46.217 c 2.5505,0.047 5.1005,0.091 7.65,0.1323 l -1.489,92.4376 c -10.2646,-0.1655 -20.5308,-0.3775 -30.7983,-0.6342 -14.7798,-20.8912 -29.2969,-41.8754 -43.5748,-62.942 l -2.3096,61.5035 c -2.666,-0.1002 -5.3321,-0.2031 -7.9983,-0.3089 1.2214,-30.7933 2.4427,-61.5865 3.6641,-92.3798 z m 87.4768,2.4002 c 13.7641,0.2013 27.5144,0.3153 41.25,0.3371 2.3244,5.4644 4.6607,10.9262 7.0091,16.3853 7.4203,17.2525 14.9681,34.4776 22.6383,51.6752 8.1464,-22.7791 16.1195,-45.589 23.9269,-68.4271 3.2701,-0.05 6.541,-0.1049 9.8126,-0.1648 -10.6544,31.0166 -21.6141,61.9811 -32.8985,92.8871 -7.8132,0.061 -15.6254,0.094 -23.4363,0.099 -3.0139,0 -6.028,-7e-4 -9.0423,-0.01 -13.4631,-30.847 -26.5403,-61.7781 -39.2598,-92.7839 z m 109.4812,-0.2864 c 13.8541,-0.2737 27.721,-0.6347 41.5997,-1.0782 l 2.9477,92.4044 c -14.2437,0.4546 -28.4856,0.8247 -42.7249,1.1057 z m 48.8805,-1.3184 c 23.5362,-0.8006 47.106,-1.8361 70.705,-3.0836 4.9732,-0.2626 9.949,-0.5346 14.9272,-0.8157 4.1942,-0.2368 8.1104,0.6381 11.7555,2.6274 3.7254,1.8962 6.7332,4.6246 9.0216,8.1895 2.3689,3.4718 3.6907,7.3593 3.9571,11.6655 0.3534,5.712 -1.0502,11.0046 -4.2258,15.8724 -3.1754,4.8679 -7.3711,8.118 -12.5768,9.7413 4.7516,1.0486 8.7125,3.3262 11.8854,6.8395 3.2596,3.5079 5.0383,7.5881 5.3241,12.246 l 1.4639,23.8598 c -12.2163,0.7494 -24.4303,1.4497 -36.6421,2.096 -2.4336,0.1288 -4.8671,0.2554 -7.3007,0.3798 l -1.4636,-28.6226 c -0.1439,-2.8138 -0.7769,-4.9857 -1.8966,-6.5157 -1.3065,-1.7851 -2.76,-3.0786 -4.3612,-3.8807 -1.7788,-0.8814 -3.7594,-1.4895 -5.9425,-1.8251 -2.2697,-0.3315 -4.4002,-0.4953 -6.3927,-0.4909 -1.1692,0.01 -2.3382,0.02 -3.5072,0.029 l 1.9313,42.352 c -14.5089,0.6615 -29.0171,1.2412 -43.5236,1.7342 z m 48.911,40.4507 c 3.1061,-0.1453 5.9184,-1.0298 8.4324,-2.6515 2.596,-1.7139 4.559,-3.9283 5.8895,-6.6404 1.412,-2.8045 2.0369,-5.746 1.8793,-8.8237 -0.162,-3.1657 -1.0839,-6.0278 -2.7605,-8.5879 -1.5953,-2.6523 -3.7585,-4.7036 -6.4888,-6.1567 -2.6448,-1.4574 -5.5038,-2.1134 -8.5815,-1.9694 -1.4961,0.07 -2.9921,0.139 -4.488,0.2072 l 1.5943,34.9635 c 1.5078,-0.1128 3.0155,-0.2265 4.5233,-0.3411 z m 131.8909,42.665 c -11.7312,0.8791 -22.4563,-0.164 -32.1466,-3.1139 -9.6912,-2.9504 -17.5078,-7.7758 -23.4483,-14.4514 -5.8603,-6.7705 -9.0807,-15.1264 -9.7032,-25.0565 -0.6169,-9.8409 1.5809,-18.4487 6.5557,-25.8255 4.9762,-7.3789 11.9359,-13.1747 20.8892,-17.4108 9.0346,-4.3304 19.3018,-6.9185 30.8385,-7.7836 11.4511,-0.8587 21.9347,0.1743 31.4714,3.1192 9.6151,2.8499 17.407,7.5491 23.3682,14.1192 6.0476,6.5625 9.5028,14.7512 10.3363,24.5779 0.8408,9.9145 -1.1799,18.6575 -6.0879,26.2261 -4.827,7.4719 -11.8226,13.3977 -20.9845,17.7546 -9.0739,4.3496 -19.4452,6.9722 -31.0888,7.8447 z m -0.5821,-7.7705 c 3.6722,-0.2752 6.2565,-2.1499 7.749,-5.6193 1.291,-2.66 1.9479,-7.2575 1.9717,-13.7947 -0,-3.4454 -0.3978,-10.3 -1.188,-20.573 -0.7968,-10.3576 -1.5779,-17.6746 -2.3407,-21.9414 -0.6642,-5.2473 -1.922,-9.1692 -3.7698,-11.7652 -1.9813,-3.2044 -4.7381,-4.672 -8.2727,-4.407 -3.6208,0.2715 -6.2117,2.1399 -7.778,5.61 -1.2727,2.7416 -1.9307,6.8073 -1.9724,12.1952 -0.013,4.5899 0.3478,11.9387 1.0827,22.0357 0.8312,11.4175 1.4599,18.2547 1.8879,20.5203 0.79,6.0344 2.0791,10.486 3.8705,13.3567 2.0789,3.2021 5.0001,4.6644 8.7598,4.3827 z m 61.2047,-90.5263 c 11.226,-0.9618 22.4648,-1.9504 33.7165,-2.962 1.4943,-0.1344 2.9887,-0.2693 4.4832,-0.4046 14.0558,14.1994 28.185,28.3642 42.377,42.4986 l -4.3542,-46.0195 c 2.606,-0.2466 5.2123,-0.4942 7.819,-0.7429 l 8.7792,92.0325 c -10.3006,0.9826 -20.6006,1.9497 -30.9002,2.8997 -7.4532,-8.2277 -14.8876,-16.4643 -22.3014,-24.7103 -9.7171,-10.8106 -19.396,-21.638 -29.0296,-32.4841 l 5.3214,61.3167 c -2.6721,0.2318 -5.3442,0.4623 -8.0161,0.6912 z m 102.0122,21.6896 5.9312,61.259 c -2.5863,0.2504 -5.1726,0.4999 -7.7588,0.7484 l -8.8436,-92.0263 c 12.6891,-1.2195 25.3866,-2.463 38.0926,-3.7274 7.6257,12.1597 15.2735,24.3122 22.9411,36.4582 3.7738,-13.3018 7.534,-26.6051 11.2819,-39.91 13.9416,-1.424 27.8939,-2.8699 41.8571,-4.3334 l 9.6366,91.9482 c -14.0358,1.4711 -28.0696,2.9252 -42.1015,4.3582 l -7.0442,-68.9797 c -6.5541,23.9025 -13.148,47.8005 -19.7898,71.6937 -3.8144,0.3819 -7.6286,0.762 -11.4428,1.1403 -10.9681,-19.5281 -21.8904,-39.0706 -32.7598,-58.6292 z m 110.9642,-42.3153 c 23.8664,-2.5114 47.7651,-5.0725 71.6978,-7.6629 7.8856,-0.8539 15.7721,-1.7108 23.6597,-2.5707 l 0.8445,7.7464 c -7.8894,0.8601 -15.7778,1.7172 -23.6653,2.5713 -8.5281,0.9231 -17.0522,1.8425 -25.5724,2.7572 l 3.6525,34.0116 c 8.0584,-0.8652 16.1192,-1.7345 24.1825,-2.607 l 0.8528,7.8783 c -8.0653,0.8728 -16.1284,1.7423 -24.1892,2.6079 l 3.6947,34.4055 c 8.5454,-0.9176 17.092,-1.8396 25.6399,-2.7651 7.9067,-0.8561 15.8135,-1.7153 23.7206,-2.5773 l 0.8588,7.8777 c -7.9089,0.8622 -15.8176,1.7216 -23.7263,2.578 -23.9996,2.5984 -47.9911,5.1697 -71.9761,7.6935 z m 102.8428,-11.0504 c 12.8698,-1.4058 25.7424,-2.8192 38.618,-4.2389 14.4769,13.9055 28.9709,27.8031 43.4784,41.6942 l -5.1055,-45.9426 c 2.6289,-0.2922 5.2579,-0.5845 7.887,-0.8771 l 10.2253,91.8838 c -10.3156,1.148 -20.6309,2.2928 -30.9458,3.434 -17.6186,-18.6913 -35.2154,-37.393 -52.7834,-56.1079 l 6.6971,61.1805 c -2.6773,0.2931 -5.3546,0.5858 -8.0318,0.8783 z m 126.7702,-6.2012 c -11.5317,1.2915 -23.0609,2.5797 -34.5879,3.8639 l -0.8628,-7.7444 c 38.4323,-4.2818 76.8921,-8.608 115.3825,-12.9508 l 0.8736,7.7432 c -11.5871,1.3073 -23.1717,2.6132 -34.7537,3.9168 l 9.469,84.1277 c -15.3674,1.7297 -30.7336,3.4558 -46.0988,5.1765 z"
       id="path1"
       inkscape:original-d="m 1044.2545,1401.5942 q 0,-23.377 11.4903,-34.7352 7.3961,-7.3961 16.5091,-9.7734 9.1131,-2.3774 23.9052,-2.3774 13.7356,0 22.0562,1.9811 8.4527,1.8491 13.8677,8.0565 4.4905,5.1508 6.9999,12.5469 2.6414,7.264 3.0377,14.2639 h -7.5282 q -0.5283,-5.9433 -2.9056,-12.1507 -2.2453,-6.3395 -7.132,-10.83 -4.8867,-4.6225 -12.4148,-4.6225 -6.9999,0 -11.6224,6.2074 -3.9622,5.415 -5.6792,14.3959 -1.5849,7.9244 -1.5849,17.0375 0,14.9242 3.6981,24.9618 4.8867,12.811 15.1884,12.811 v -36.5842 h 40.4143 v 45.169 q -19.0185,0 -43.0558,0.5283 l -13.3394,0.132 q -14.528,0 -23.641,-2.7735 -8.981,-2.9056 -15.4526,-9.3772 -12.811,-12.811 -12.811,-34.8672 z m 176.9777,47.0179 q -17.6977,0 -31.9616,-5.4149 -14.2639,-5.415 -22.5845,-15.9809 -8.1885,-10.6979 -8.1885,-25.6221 0,-14.7922 8.3206,-25.3581 8.3206,-10.5658 22.4524,-15.9808 14.2639,-5.5471 31.9616,-5.5471 17.5658,0 31.6976,5.5471 14.2638,5.415 22.4524,15.9808 8.3206,10.5659 8.3206,25.3581 0,14.9242 -8.3206,25.6221 -8.1886,10.5659 -22.4524,15.9809 -14.1318,5.4149 -31.6976,5.4149 z m 0,-7.7923 q 5.5471,0 8.1886,-5.0187 2.2452,-3.8302 3.0376,-13.6036 0.3963,-5.1508 0.3963,-20.6033 0,-15.5847 -0.6604,-22.0562 -0.3962,-7.9244 -2.9056,-12.0187 -2.6415,-5.0187 -8.0565,-5.0187 -5.547,0 -8.3206,5.0187 -2.2452,3.9622 -2.9056,12.0187 -0.5283,6.8678 -0.5283,22.0562 0,17.1694 0.3963,20.6033 0.5283,9.1131 2.9056,13.6036 2.7735,5.0187 8.4526,5.0187 z m 68.9421,-85.3191 h 69.4704 q 18.8865,0 32.622,13.4714 13.6036,13.6035 13.6036,32.6221 0,19.2826 -13.6036,32.8861 -13.6035,13.4715 -32.622,13.4715 h -69.4704 z m 54.15,84.7908 q 7.5281,0 10.8299,-4.8867 3.1698,-4.7546 3.9622,-13.4714 0.6604,-5.6791 0.6604,-20.3392 0,-11.3583 -0.7924,-21.66 -0.7925,-7.7923 -3.9622,-11.8866 -3.3019,-4.8867 -10.6979,-4.8867 h -7.9244 v 77.1306 z m 129.2993,8.3206 q -17.6977,0 -31.9616,-5.4149 -14.2639,-5.415 -22.5845,-15.9809 -8.1885,-10.6979 -8.1885,-25.6221 0,-14.7922 8.3206,-25.3581 8.3206,-10.5658 22.4524,-15.9808 14.2639,-5.5471 31.9616,-5.5471 17.5658,0 31.6976,5.5471 14.2638,5.415 22.4524,15.9808 8.3206,10.5659 8.3206,25.3581 0,14.9242 -8.3206,25.6221 -8.1886,10.5659 -22.4524,15.9809 -14.1318,5.4149 -31.6976,5.4149 z m 0,-7.7923 q 5.5471,0 8.1886,-5.0187 2.2452,-3.8302 3.0377,-13.6036 0.3962,-5.1508 0.3962,-20.6033 0,-15.5847 -0.6604,-22.0562 -0.3962,-7.9244 -2.9056,-12.0187 -2.6415,-5.0187 -8.0565,-5.0187 -5.547,0 -8.3206,5.0187 -2.2452,3.9622 -2.9056,12.0187 -0.5283,6.8678 -0.5283,22.0562 0,17.1694 0.3963,20.6033 0.5283,9.1131 2.9056,13.6036 2.7735,5.0187 8.4526,5.0187 z m 83.9984,-77.5268 h -34.7352 v -7.7923 h 115.8281 v 7.7923 h -34.8673 v 84.6588 h -46.2256 z m 143.9597,-7.7923 h 96.017 v 7.7923 h -49.5273 v 34.2069 h 24.3014 v 7.9244 h -24.3014 v 34.6031 h 49.5273 v 7.9244 h -96.017 z m 103.5453,0 h 38.8294 l 38.5653,46.2255 v -46.2255 h 7.9244 v 92.4511 h -31.0371 l -46.2256,-61.546 v 61.546 h -8.0564 z m 90.4699,0 h 42.7917 l 30.2447,68.1497 25.358,-68.1497 h 10.1696 l -34.8672,92.4511 h -32.7541 z m 113.5829,0 h 43.0558 v 92.4511 h -43.0558 z m 50.5838,0 h 88.3569 q 6.4715,0 11.8865,3.3018 5.5471,3.1698 8.7168,8.7168 3.3019,5.415 3.3019,11.8866 0,8.5847 -5.283,15.5846 -5.2829,6.9999 -13.3393,8.981 7.1319,1.9811 11.6224,7.5281 4.6226,5.5471 4.6226,12.547 v 23.9052 h -44.2445 v -28.6599 q 0,-4.2263 -1.5849,-6.6036 -1.849,-2.7735 -4.2263,-4.0943 -2.6415,-1.4528 -5.9433,-2.1131 -3.4339,-0.6604 -6.4716,-0.7925 l -3.5659,-0.1321 v 42.3955 h -43.8483 z m 48.4708,42.3954 q 4.7546,0 8.7168,-2.2452 4.0943,-2.3773 6.3395,-6.3395 2.3773,-4.0943 2.3773,-8.7168 0,-4.7547 -2.3773,-8.7169 -2.2452,-4.0942 -6.3395,-6.4715 -3.9622,-2.3774 -8.7168,-2.3774 h -4.6225 v 34.9994 z m 130.356,50.716 q -17.6978,0 -31.9617,-5.4149 -14.2639,-5.415 -22.5845,-15.9809 -8.1885,-10.6979 -8.1885,-25.6221 0,-14.7922 8.3206,-25.3581 8.3206,-10.5658 22.4524,-15.9808 14.2639,-5.5471 31.9617,-5.5471 17.5657,0 31.6975,5.5471 14.2639,5.415 22.4524,15.9808 8.3206,10.5659 8.3206,25.3581 0,14.9242 -8.3206,25.6221 -8.1885,10.5659 -22.4524,15.9809 -14.1318,5.4149 -31.6975,5.4149 z m 0,-7.7923 q 5.547,0 8.1885,-5.0187 2.2452,-3.8302 3.0377,-13.6036 0.3962,-5.1508 0.3962,-20.6033 0,-15.5847 -0.6604,-22.0562 -0.3962,-7.9244 -2.9056,-12.0187 -2.6414,-5.0187 -8.0564,-5.0187 -5.5471,0 -8.3206,5.0187 -2.2453,3.9622 -2.9056,12.0187 -0.5283,6.8678 -0.5283,22.0562 0,17.1694 0.3962,20.6033 0.5283,9.1131 2.9056,13.6036 2.7735,5.0187 8.4527,5.0187 z m 68.9421,-85.3191 h 38.8295 l 38.5653,46.2255 v -46.2255 h 7.9244 v 92.4511 h -31.0372 l -46.2255,-61.546 v 61.546 h -8.0565 z m 100.5076,30.9051 v 61.546 h -7.7924 v -92.4511 h 38.5654 l 19.2826,38.5653 15.3205,-38.5653 h 42.2633 v 92.4511 h -42.2633 v -69.3383 l -26.9429,69.3383 h -11.4904 z m 115.1675,-30.9051 h 96.0171 v 7.7923 h -49.5274 v 34.2069 h 24.3014 v 7.9244 h -24.3014 v 34.6031 h 49.5274 v 7.9244 h -96.0171 z m 103.5453,0 h 38.8294 l 38.5654,46.2255 v -46.2255 h 7.9243 v 92.4511 h -31.0371 l -46.2256,-61.546 v 61.546 h -8.0564 z m 126.5259,7.7923 h -34.7352 v -7.7923 h 115.828 v 7.7923 h -34.8673 v 84.6588 h -46.2255 z"
       style="display:inline;fill:#ffffff;fill-opacity:1;stroke:#000000;stroke-opacity:1;stroke-width:6.48300001;stroke-dasharray:none" /><path
       d="m 1076.9309,1580.1418 c -1.411,12.6891 -7.147,22.6377 -17.2108,29.8453 3.7162,8.2099 7.434,16.4197 11.1534,24.6293 -9.9874,-1.1105 -19.9726,-2.2226 -29.9556,-3.3356 -3.958,-0.4414 -7.7887,-1.6217 -11.492,-3.5411 -3.6154,-1.9096 -6.5513,-4.3194 -8.8079,-7.2292 -4.1813,-0.024 -7.9862,-0.2274 -11.4147,-0.6104 -11.78,-1.3161 -22.21406,-4.2991 -31.30301,-8.948 -9.00107,-4.6391 -15.87659,-10.7684 -20.62809,-18.3876 -4.65384,-7.6968 -6.42768,-16.4894 -5.32188,-26.3772 1.09603,-9.8003 4.75865,-17.8961 10.98837,-24.2871 6.3176,-6.3813 14.42125,-10.8349 24.31137,-13.3614 9.89999,-2.614 20.69274,-3.2678 32.37944,-1.9621 11.6866,1.3056 22.0704,4.3252 31.1521,9.0588 9.0914,4.6461 15.9729,10.7723 20.6442,18.3795 4.7591,7.617 6.595,16.3258 5.5051,26.1268 z m -66.8624,32.0141 c 3.78,0.4224 6.735,-0.931 8.8647,-4.0598 1.7779,-2.3707 3.2921,-6.7643 4.5426,-13.1808 0.6448,-3.3833 1.5387,-10.1939 2.6819,-20.432 0.9965,-8.9255 1.5926,-16.2568 1.7882,-21.9936 0.3226,-5.2798 -0.1995,-9.3692 -1.5663,-12.2683 -1.3863,-3.5215 -3.9247,-5.4883 -7.6153,-5.9006 -3.6028,-0.4025 -6.5125,0.9557 -8.7295,4.0746 -1.7872,2.4582 -3.1988,6.3316 -4.2348,11.6201 -0.9185,4.2386 -1.9549,11.5207 -3.109,21.8461 -1.1835,10.588 -1.7706,17.4329 -1.7613,20.5349 -0.2746,6.4368 0.1885,11.0513 1.3894,13.8435 1.4742,3.5314 4.0573,5.5035 7.7494,5.9159 z m 112.4971,20.3508 c -15.9369,-1.7605 -27.0787,-5.3449 -33.4274,-10.7444 -6.2612,-5.3901 -8.8602,-12.855 -7.8003,-22.3936 l 7.1473,-64.3199 c 16.7881,1.8654 33.5782,3.7259 50.3705,5.5792 l -7.0994,64.3252 c -0.6858,6.2138 0.1763,10.9153 2.5871,14.1044 2.5084,3.1113 6.0524,4.9193 10.6316,5.4234 10.2163,1.1246 15.9778,-4.2673 17.2845,-16.17 l 7.0622,-64.3292 c 2.594,0.2847 5.188,0.5693 7.7822,0.8537 l -7.0517,64.3304 c -0.8155,7.4396 -3.0339,13.0423 -6.6563,16.8081 -3.6128,3.6782 -8.6821,6.0005 -15.2068,6.9658 -6.5151,0.8777 -15.0574,0.7341 -25.6235,-0.4331 z m 61.9252,-86.8621 c 31.966,3.4988 63.9409,6.9643 95.9263,10.3813 l -0.8278,7.7482 c -16.5027,-1.763 -33.0023,-3.5388 -49.499,-5.3255 l -3.6831,34.008 c 8.1017,0.8774 16.2046,1.7523 24.3085,2.6244 l -0.8479,7.8789 c -8.1058,-0.8723 -16.2104,-1.7473 -24.3139,-2.625 l -3.7258,34.4019 c 16.5305,1.7903 33.0672,3.5702 49.6101,5.3376 l -0.8417,7.8795 c -32.0794,-3.4272 -64.1338,-6.9013 -96.1648,-10.4072 z m 103.4497,11.1842 c 29.4345,3.1376 58.8868,6.2346 88.3597,9.2557 4.3173,0.4425 8.1705,1.9423 11.5616,4.5 3.4881,2.479 6.1047,5.6647 7.8493,9.5582 1.8417,3.8148 2.5471,7.8683 2.1136,12.1608 -0.5751,5.6944 -2.8629,10.6847 -6.868,14.9696 -4.005,4.2846 -8.7721,6.8094 -14.2972,7.5725 4.6379,1.8015 8.2738,4.6934 10.9078,8.6777 2.7225,3.9931 3.851,8.3106 3.3814,12.9536 l -2.4057,23.7839 c -14.8529,-1.502 -29.6912,-3.0245 -44.5154,-4.563 l 2.9587,-28.5069 c 0.2909,-2.8025 -0.012,-5.047 -0.9084,-6.7336 -1.0457,-1.9675 -2.3176,-3.4719 -3.8159,-4.513 -1.6659,-1.1472 -3.5795,-2.0548 -5.7407,-2.7231 -2.2496,-0.6775 -4.3847,-1.1663 -6.4055,-1.4664 -0.01,-10e-4 -3.5537,-0.5049 -3.5605,-0.5059 l -4.4216,42.1646 c -14.6776,-1.5393 -29.3414,-3.0921 -43.9918,-4.6542 z m 44.0454,47.2868 c 3.1764,0.3324 6.1663,-0.1079 8.9687,-1.3208 2.8999,-1.2913 5.2363,-3.1729 7.0091,-5.6445 1.8703,-2.5499 2.964,-5.3576 3.2821,-8.4229 0.3272,-3.1528 -0.1667,-6.1253 -1.4804,-8.9175 -1.2165,-2.8706 -3.1084,-5.2362 -5.6756,-7.0972 -2.479,-1.8518 -5.3036,-2.9435 -8.4748,-3.2753 -1.5415,-0.1613 -3.083,-0.3228 -4.6244,-0.4845 l -3.6502,34.8088 c 1.5484,0.1181 3.097,0.2361 4.6455,0.3539 z m 91.081,16.9933 c -7.96,-17.5548 -15.8797,-35.116 -23.7657,-52.6832 17.276,1.7457 34.5594,3.4622 51.8507,5.1424 5.1342,13.149 10.2889,26.2951 15.4665,39.4379 7.3954,-11.9417 14.7722,-23.8902 22.1283,-35.846 3.3988,0.319 6.7979,0.6363 10.1974,0.9521 -9.7547,15.8509 -19.5469,31.6885 -29.3721,47.514 l -4.0168,42.2043 c -15.5716,-1.4819 -31.1265,-2.9944 -46.6653,-4.5325 1.3923,-14.063 2.7846,-28.126 4.177,-42.189 z m 194.0674,60.5848 c -12.046,-0.9291 -22.767,-3.6005 -32.1475,-7.9917 -9.3813,-4.3915 -16.5803,-10.3455 -21.6064,-17.8428 -4.9297,-7.5779 -6.954,-16.3263 -6.1003,-26.2389 0.8461,-9.825 4.3718,-18.0051 10.5551,-24.5475 6.1845,-6.5436 14.1598,-11.2162 23.9315,-14.0368 9.8686,-2.9016 20.7238,-3.8851 32.5942,-2.969 11.7814,0.9092 22.2761,3.5404 31.5079,7.9109 9.326,4.2886 16.5138,10.122 21.5616,17.5235 5.1358,7.406 7.3984,16.0258 6.7482,25.8654 -0.656,9.9285 -4.0415,18.2635 -10.1909,24.9977 -6.0517,6.6505 -14.0774,11.439 -24.0608,14.3419 -9.8935,2.9093 -20.8363,3.9095 -32.7926,2.9873 z m 0.5997,-7.7693 c 3.7715,0.2909 6.684,-1.1656 8.7325,-4.3657 1.7196,-2.4309 3.0925,-6.874 4.1197,-13.3312 0.527,-3.4054 1.1764,-10.2409 1.9499,-20.5151 0.7799,-10.3589 1.109,-17.7102 0.9886,-22.0443 0.1303,-5.2879 -0.5463,-9.3571 -2.0266,-12.2063 -1.5227,-3.4711 -4.1007,-5.3449 -7.7369,-5.6255 -3.7247,-0.2874 -6.6476,1.1617 -8.773,4.3512 -1.715,2.5147 -3.007,6.4321 -3.8741,11.7511 -0.7157,4.5349 -1.4734,11.8531 -2.271,21.9459 -0.9019,11.4122 -1.3089,18.267 -1.2207,20.5716 -0.1204,6.0852 0.5078,10.6827 1.8876,13.7943 1.6209,3.4833 4.3628,5.3762 8.224,5.674 z m 76.0085,-80.1231 c 20.49,1.3276 40.9993,2.5323 61.5282,3.5927 9.2275,0.4765 18.4583,0.9224 27.692,1.3363 4.3627,0.1956 8.3211,1.4676 11.8838,3.8197 3.6552,2.2676 6.4826,5.289 8.481,9.0689 2.0913,3.6955 3.0584,7.6976 2.8917,12.0088 -0.2211,5.719 -2.2154,10.842 -6.0012,15.3608 -3.7857,4.5188 -8.4626,7.323 -14.018,8.4034 4.8094,1.5311 8.6735,4.2023 11.5957,8.0218 3.0122,3.8228 4.4343,8.0633 4.2511,12.7266 l -0.9384,23.8871 c -15.2759,-0.5998 -30.5334,-1.2877 -45.7713,-2.0581 l 1.4448,-28.6235 c 0.142,-2.8138 -0.2891,-5.0398 -1.291,-6.6777 -0.8824,-1.4424 -1.8806,-2.6149 -2.995,-3.5174 -0.3615,-0.2931 -0.7354,-0.5578 -1.1215,-0.794 -1.7504,-1.0608 -3.7381,-1.8705 -5.9635,-2.4301 -2.3155,-0.5644 -4.5041,-0.9474 -6.5672,-1.1486 -1.2113,-0.1104 -2.4225,-0.2214 -3.6334,-0.3328 l -2.3506,42.3296 c -15.0586,-0.8374 -30.0904,-1.7459 -45.0954,-2.7177 z m 46.6041,45.255 c 3.2312,0.1763 6.2346,-0.4129 9.0056,-1.7661 1.498,-0.7509 2.8311,-1.6558 3.9993,-2.7141 1.0671,-0.9662 1.9966,-2.0604 2.7886,-3.2822 1.7537,-2.6435 2.7059,-5.505 2.861,-8.5829 0.1596,-3.1657 -0.4997,-6.108 -1.9732,-8.8281 -0.6584,-1.3379 -1.4652,-2.5531 -2.4202,-3.6458 -1.0455,-1.1968 -2.2689,-2.2467 -3.67,-3.1499 -2.5912,-1.7232 -5.4879,-2.6713 -8.6941,-2.8461 -1.5586,-0.085 -3.1171,-0.1708 -4.6755,-0.2573 l -1.9405,34.9449 c 1.5729,0.043 3.1458,0.086 4.719,0.1276 z m 141.5192,46.7037 c 6.8527,0.1225 12.335,-2.4845 16.4193,-7.8012 4.0856,-5.3181 6.7517,-11.8027 8.0162,-19.4501 2.8124,0.031 5.6252,0.059 8.4384,0.083 -1.3527,9.4989 -4.6557,17.5689 -9.9412,24.2024 -2.9657,3.6643 -6.3407,6.3956 -10.1202,8.191 -3.6864,1.7084 -7.7808,2.7891 -12.2771,3.238 -4.4018,0.4502 -10.1818,0.6051 -17.3172,0.445 -10.0643,-0.2259 -18.2299,-1.3744 -24.4756,-3.4048 -6.1547,-2.1167 -11.3933,-5.4109 -15.7106,-9.8712 -8.4584,-8.7387 -12.3696,-20.52 -11.8274,-35.3024 0.5712,-15.5713 4.867,-27.0033 12.8029,-34.307 5.1715,-4.7596 10.8483,-7.838 17.0486,-9.2428 6.2036,-1.4056 14.2838,-1.9757 24.2736,-1.7511 9.1865,0.2065 16.6158,0.9992 22.3092,2.4125 5.781,1.326 10.4769,4.0735 14.0961,8.2557 3.0009,3.4698 5.3327,7.6331 6.9911,12.4922 1.6586,4.8594 2.6062,9.6663 2.8337,14.4233 -2.571,-0.023 -5.1417,-0.05 -7.7122,-0.079 -0.3159,-3.9662 -1.2609,-8.0269 -2.8281,-12.1847 -1.4762,-4.2445 -3.8527,-7.8846 -7.1238,-10.9249 -3.2703,-3.1289 -7.448,-4.7338 -12.5451,-4.8251 -4.8285,-0.086 -8.7573,1.9029 -11.8008,5.9778 -2.6659,3.2013 -4.7465,7.9555 -6.2399,14.2619 -1.0996,4.8179 -1.7284,10.4855 -1.88,16.9985 -0.2398,10.3009 0.8323,18.6447 3.2394,25.0416 3.0846,8.6104 8.2023,12.9932 15.3307,13.1207 z m 39.9201,-83.3777 c 7.947,0.053 15.8954,0.078 23.8449,0.074 7.2308,-0 14.4606,-0.033 21.6893,-0.085 l 0.2965,41.3372 c 9.9871,-0.072 19.9703,-0.188 29.949,-0.3468 l -0.6584,-41.333 c 15.1696,-0.2416 30.3338,-0.5834 45.4915,-1.0201 l 2.6636,92.4126 c -15.5438,0.4473 -31.105,0.7975 -46.6826,1.0453 l -0.6731,-42.2572 c -10.0042,0.1592 -20.0131,0.2757 -30.0266,0.3478 l 0.3031,42.2616 c -7.4298,0.054 -14.8632,0.083 -22.3001,0.088 -8.1758,0 -16.3472,-0.022 -24.5141,-0.077 z m 128.1021,-1.597 c 28.425,-0.8774 56.8269,-2.0855 85.1987,-3.589 3.9726,-0.2106 7.9444,-0.4266 11.9155,-0.6481 l 0.4336,7.7802 c -3.9781,0.2218 -7.9571,0.4383 -11.9369,0.6493 -12.7349,0.6749 -25.4764,1.2905 -38.224,1.8434 l 1.4823,34.1752 c 8.2824,-0.3592 16.561,-0.7447 24.8358,-1.1555 l 0.3926,7.9148 c -8.2909,0.4116 -16.5859,0.7978 -24.885,1.1578 l 1.4995,34.5711 c 12.9986,-0.5639 25.9846,-1.1915 38.9576,-1.8798 4.0513,-0.2152 8.1007,-0.4358 12.1482,-0.6617 l 0.441,7.912 c -4.0547,0.2264 -8.1114,0.4474 -12.17,0.663 -29.0123,1.5395 -58.093,2.776 -87.2354,3.6745 z m 172.6033,24.1777 c 10.8228,2.0571 19.0396,5.1949 24.662,9.4532 5.6141,4.1692 8.7111,9.9352 9.2761,17.3097 0.4506,5.8818 -1.0267,11.2944 -4.4477,16.233 -3.4206,4.9379 -8.7262,9.0014 -15.9244,12.1727 -7.1069,3.1643 -15.9078,5.115 -26.3913,5.8247 -12.3827,0.8383 -23.4406,-0 -33.1346,-2.4966 -9.6093,-2.5884 -17.2123,-5.9881 -22.8015,-10.1701 1.3814,-2.0621 2.7605,-4.1247 4.1375,-6.188 4.9027,3.3346 11.0043,6.0647 18.3002,8.1768 7.2958,2.112 15.0622,2.9002 23.2788,2.3594 5.327,-0.3507 9.2929,-1.3698 11.8957,-3.0473 2.6935,-1.684 3.9436,-3.889 3.7557,-6.6118 -0.3276,-4.7461 -5.396,-8.0942 -15.1908,-10.0925 -5.956,-1.2824 -11.9096,-2.5751 -17.8604,-3.8786 -9.7106,-2.2151 -17.3206,-5.6915 -22.8207,-10.3996 -5.4107,-4.7137 -8.2975,-10.5062 -8.6826,-17.3631 -0.3209,-5.7143 1.2227,-11.0031 4.6116,-15.8716 3.3894,-4.8691 8.4734,-8.8245 15.2482,-11.8832 6.8586,-3.1522 15.1628,-5.0407 24.9277,-5.6866 9.3212,-0.6165 17.9531,-0.1547 25.9139,1.3977 8.0498,1.5462 14.6704,3.6176 19.868,6.2323 0.01,-0.01 -3.9556,6.3956 -3.9492,6.3852 -4.355,-2.0624 -9.5234,-3.7154 -15.5084,-4.9671 -5.8959,-1.2579 -12.0398,-1.669 -18.4402,-1.2363 -5.6006,0.3786 -9.8544,1.5396 -12.7661,3.4938 -2.8277,1.86 -4.1488,4.282 -3.9573,7.2696 0.1465,2.2845 1.3903,4.2344 3.7349,5.8472 2.3377,1.5242 6.6884,2.9194 13.0483,4.1676 6.4025,1.2015 12.8082,2.3911 19.2166,3.5695 z m 58.2447,-29.8717 c -11.6583,0.9466 -23.3238,1.8624 -34.9965,2.7433 l -0.5866,-7.7702 c 33.5328,-2.5308 67.0131,-5.3504 100.4428,-8.3617 5.322,-0.4792 10.6432,-0.9632 15.9635,-1.4517 l 0.7123,7.7597 c -5.3247,0.4888 -10.6503,0.9732 -15.977,1.4529 -6.3485,0.5719 -12.6991,1.137 -19.0519,1.6944 l 7.3987,84.3362 c -15.6541,1.3744 -31.3383,2.7042 -47.0527,3.9798 z m 87.3156,-15.4386 c 29.5446,-2.7328 59.0627,-5.601 88.5574,-8.5674 4.3205,-0.4345 8.3982,0.2594 12.2357,2.0826 3.9169,1.7266 7.1216,4.3205 9.6144,7.7833 2.572,3.3661 4.0789,7.1947 4.5181,11.4867 0.5826,5.6933 -0.6542,11.0423 -3.7165,16.0453 -3.0623,5.0029 -7.2265,8.4354 -12.4915,10.2945 4.9108,0.8316 9.0568,2.9327 12.4404,6.3053 3.4721,3.3636 5.4467,7.3657 5.921,12.0082 l 2.4297,23.7815 c -14.8581,1.5176 -29.7315,3.0137 -44.6207,4.4836 l -2.8162,-28.5209 c -0.2769,-2.8038 -1.0252,-4.942 -2.2444,-6.4143 -1.4223,-1.7177 -2.9739,-2.9363 -4.6551,-3.6558 -1.8672,-0.7898 -3.9297,-1.2954 -6.1881,-1.517 -2.347,-0.2131 -4.5439,-0.2645 -6.5911,-0.154 -1.2008,0.072 -2.4017,0.1446 -3.6027,0.2166 l 4.0857,42.1978 c -14.7713,1.43 -29.5584,2.8321 -44.3615,4.2016 z m 52.7025,37.5826 c 3.1886,-0.3101 6.0385,-1.3405 8.5484,-3.0905 2.5899,-1.8463 4.5069,-4.1584 5.7517,-6.9353 1.3248,-2.8732 1.8348,-5.8434 1.5319,-8.9102 -0.3116,-3.1543 -1.3927,-5.9673 -3.2419,-8.4392 -1.7694,-2.5684 -4.1,-4.5066 -6.992,-5.8156 -2.8036,-1.3176 -5.794,-1.8217 -8.9727,-1.5126 -1.5452,0.1503 -3.0905,0.3002 -4.6359,0.4498 l 3.3729,34.8361 c 1.546,-0.1938 3.0919,-0.388 4.6376,-0.5825 z m 98.1172,-52.5484 c 12.86,-1.347 25.7159,-2.7078 38.568,-4.0793 16.9142,29.1874 33.8792,58.3568 50.8703,87.5141 -16.6742,1.8056 -33.3666,3.6 -50.0778,5.3764 -5.7216,-9.6631 -11.438,-19.3283 -17.1483,-28.9958 -9.7171,1.0262 -19.4392,2.0455 -29.1665,3.0566 -2.9232,10.5726 -5.8545,21.1446 -8.7948,31.716 -3.2354,0.3338 -6.4715,0.6667 -9.7083,0.9987 8.5615,-31.8567 17.0412,-63.7192 25.4574,-95.5867 z m 17.6571,52.1947 c -4.955,-8.4642 -9.9053,-16.9302 -14.8501,-25.3982 -2.5534,9.2534 -5.1125,18.5063 -7.6778,27.7587 7.5121,-0.7822 15.0214,-1.5692 22.5279,-2.3605 z m 72.4379,-53.9859 c -2.8687,0.3114 -5.7376,0.6225 -8.6066,0.9331 -8.7025,0.9425 -17.4069,1.8816 -26.1133,2.8165 l -0.8319,-7.7478 c 8.7038,-0.9346 17.4059,-1.8735 26.1064,-2.8157 29.8776,-3.2353 59.746,-6.5126 89.6063,-9.8188 l 0.8576,7.7449 c -11.6085,1.2853 -23.2182,2.5663 -34.8295,3.8422 l 9.2467,84.1522 c -15.4272,1.6951 -30.8601,3.3816 -46.2991,5.0577 z m 139.9487,70.4027 c -11.7972,1.3177 -22.6533,0.7104 -32.5638,-1.8208 -9.9107,-2.5312 -18.0285,-6.9916 -24.3515,-13.3791 -6.2448,-6.485 -9.9112,-14.6726 -11.0032,-24.5621 -1.0824,-9.8019 0.7628,-18.5096 5.5304,-26.1236 4.7677,-7.6142 11.6565,-13.7366 20.6659,-18.3697 9.0878,-4.7305 19.5198,-7.7526 31.2985,-9.0682 11.691,-1.3058 22.4435,-0.6497 32.2605,1.9704 9.8949,2.5227 17.9605,6.9766 24.1973,13.3637 6.3247,6.377 10.0391,14.465 11.1419,24.2646 1.1126,9.887 -0.7016,18.6861 -5.4453,26.3963 -4.6656,7.6128 -11.5477,13.7469 -20.6481,18.4003 -9.0124,4.6436 -19.3736,7.6204 -31.0826,8.9282 z m -0.865,-7.7441 c 3.6972,-0.413 6.24,-2.3806 7.6284,-5.9026 1.2123,-2.7049 1.7202,-7.3245 1.5237,-13.8588 -0.1178,-3.4423 -0.7494,-10.282 -1.8948,-20.5199 -1.1552,-10.3252 -2.1926,-17.6073 -3.1119,-21.8457 -0.8512,-5.2206 -2.2637,-9.0938 -4.2374,-11.6196 -2.1302,-3.1285 -4.9973,-4.4913 -8.6017,-4.0887 -3.6923,0.4124 -6.276,2.384 -7.7516,5.9152 -1.2018,2.7919 -1.7252,6.8813 -1.5698,12.2682 0.1556,4.5894 0.7943,11.9161 1.9162,21.9792 1.2683,11.376 2.1612,18.1865 2.679,20.4324 1.0252,5.9987 2.496,10.3972 4.4125,13.1957 2.2195,3.119 5.2222,4.4674 9.0074,4.0446 z m 59.3452,-92.5122 c 29.3935,-3.3095 58.7811,-6.6304 88.1642,-9.9502 4.3043,-0.4863 8.3807,0.1608 12.2291,1.9413 3.9264,1.683 7.1511,4.2429 9.6741,7.6794 2.601,3.3392 4.1435,7.1524 4.6277,11.4394 0.6423,5.6871 -0.5312,11.0476 -3.5205,16.0815 -2.9893,5.0339 -7.0886,8.5096 -12.2984,10.4274 4.8915,0.7765 9.0377,2.8334 12.4388,6.1708 3.489,3.3274 5.4952,7.3097 6.019,11.9468 l 2.6829,23.7542 c -14.7086,1.6614 -29.4216,3.3241 -44.1391,4.9867 l -3.2171,-28.4787 c -0.3163,-2.7997 -1.0905,-4.9275 -2.3227,-6.3833 -1.4376,-1.6984 -2.9966,-2.8957 -4.677,-3.592 -1.8659,-0.7639 -3.9219,-1.2405 -6.1681,-1.4299 -2.3339,-0.1795 -4.5163,-0.1989 -6.5473,-0.058 -1.1912,0.09 -2.3824,0.1803 -3.5737,0.2705 l 4.756,42.1278 c -14.5901,1.6472 -29.1846,3.2934 -43.7838,4.9371 -3.448,-30.6235 -6.896,-61.2471 -10.3441,-91.8707 z m 53.1258,36.6731 c 3.1633,-0.3572 5.9789,-1.4284 8.4468,-3.2135 2.5458,-1.8825 4.4172,-4.2205 5.6143,-7.014 1.275,-2.8908 1.7395,-5.8674 1.3936,-8.9296 -0.3558,-3.1497 -1.4726,-5.9477 -3.3505,-8.3938 -1.7999,-2.5436 -4.1505,-4.449 -7.0518,-5.7162 -2.8135,-1.2772 -5.8017,-1.7372 -8.9645,-1.3801 -1.5375,0.1736 -3.0751,0.3472 -4.6126,0.5208 l 3.9263,34.7784 c 1.5328,-0.2173 3.0656,-0.4347 4.5984,-0.652 z"
       id="path2"
       inkscape:original-d="m 1085.9893,1566.6854 q 0,19.1506 -13.7356,31.5655 l 13.7356,23.2448 h -29.9806 q -5.9433,0 -11.7545,-2.2452 -5.6791,-2.2453 -9.5092,-6.2075 -6.2075,0.6604 -11.3583,0.6604 -17.6978,0 -31.96169,-5.415 -14.13181,-5.415 -22.45241,-15.9808 -8.18853,-10.6979 -8.18853,-25.6222 0,-14.7922 8.18853,-25.358 8.3206,-10.5658 22.58448,-15.9808 14.26392,-5.5471 31.82962,-5.5471 17.5657,0 31.8296,5.5471 14.2639,5.415 22.4524,15.9808 8.3206,10.5658 8.3206,25.358 z m -62.6026,39.2257 q 5.6791,0 8.3206,-5.0188 2.2452,-3.8301 3.0377,-13.6035 0.3962,-5.1509 0.3962,-20.6034 0,-13.4714 -0.6604,-22.0562 -0.3962,-7.9244 -2.9056,-12.0186 -2.6415,-5.0188 -8.1885,-5.0188 -5.415,0 -8.1886,5.0188 -2.2452,3.9622 -2.9056,12.0186 -0.6603,6.4716 -0.6603,22.0562 0,15.9808 0.5283,20.6034 0.6603,9.6413 2.9056,13.6035 2.7735,5.0188 8.3206,5.0188 z m 113.4507,7.7923 q -23.9053,0 -34.207,-6.9999 -10.1696,-6.9998 -10.1696,-21.3958 v -64.7158 h 50.4519 v 64.7158 q 0,9.3772 4.0943,13.7356 4.2263,4.2263 11.0941,4.2263 15.3205,0 15.3205,-17.9619 v -64.7158 h 7.7923 v 64.7158 q 0,11.2262 -4.7546,17.4336 -4.7547,6.0754 -14.2639,8.5848 -9.5093,2.3773 -25.358,2.3773 z m 51.7727,-93.1115 h 96.017 v 7.7923 h -49.5273 v 34.2069 h 24.3014 v 7.9244 h -24.3014 v 34.6031 h 49.5273 v 7.9244 h -96.017 z m 103.5452,0 h 88.3569 q 6.4715,0 11.8865,3.3019 5.5471,3.1697 8.7169,8.7168 3.3018,5.415 3.3018,11.8865 0,8.5848 -5.2829,15.5847 -5.283,6.9998 -13.3394,8.9809 7.1319,1.9811 11.6224,7.5282 4.6226,5.547 4.6226,12.5469 v 23.9052 h -44.2445 v -28.6598 q 0,-4.2263 -1.5849,-6.6037 -1.849,-2.7735 -4.2263,-4.0942 -2.6415,-1.4528 -5.9433,-2.1132 -3.4339,-0.6604 -6.4716,-0.7924 l -3.5659,-0.1321 v 42.3954 h -43.8483 z m 48.4708,42.3955 q 4.7547,0 8.7168,-2.2453 4.0943,-2.3773 6.3395,-6.3395 2.3774,-4.0942 2.3774,-8.7168 0,-4.7546 -2.3774,-8.7168 -2.2452,-4.0943 -6.3395,-6.4716 -3.9621,-2.3773 -8.7168,-2.3773 h -4.6225 v 34.9993 z m 91.5267,7.6602 -28.6599,-50.0557 h 51.7727 l 19.0185,37.7729 18.4902,-37.7729 h 10.1696 l -24.5656,50.0557 v 42.3954 h -46.2255 z m 195.6,43.0558 q -17.6978,0 -31.9616,-5.415 -14.2639,-5.415 -22.5845,-15.9808 -8.1886,-10.6979 -8.1886,-25.6222 0,-14.7922 8.3206,-25.358 8.3206,-10.5658 22.4525,-15.9808 14.2638,-5.5471 31.9616,-5.5471 17.5657,0 31.6975,5.5471 14.2639,5.415 22.4524,15.9808 8.3206,10.5658 8.3206,25.358 0,14.9243 -8.3206,25.6222 -8.1885,10.5658 -22.4524,15.9808 -14.1318,5.415 -31.6975,5.415 z m 0,-7.7923 q 5.5471,0 8.1885,-5.0188 2.2453,-3.8301 3.0377,-13.6035 0.3962,-5.1509 0.3962,-20.6034 0,-15.5846 -0.6603,-22.0562 -0.3962,-7.9244 -2.9056,-12.0186 -2.6415,-5.0188 -8.0565,-5.0188 -5.547,0 -8.3206,5.0188 -2.2452,3.9622 -2.9056,12.0186 -0.5283,6.8678 -0.5283,22.0562 0,17.1695 0.3962,20.6034 0.5283,9.113 2.9056,13.6035 2.7736,5.0188 8.4527,5.0188 z m 68.9421,-85.3192 h 88.3568 q 6.4716,0 11.8866,3.3019 5.5471,3.1697 8.7168,8.7168 3.3019,5.415 3.3019,11.8865 0,8.5848 -5.283,15.5847 -5.2829,6.9998 -13.3393,8.9809 7.1319,1.9811 11.6224,7.5282 4.6225,5.547 4.6225,12.5469 v 23.9052 h -44.2444 v -28.6598 q 0,-4.2263 -1.5849,-6.6037 -1.849,-2.7735 -4.2263,-4.0942 -2.6415,-1.4528 -5.9433,-2.1132 -3.4339,-0.6604 -6.4716,-0.7924 l -3.566,-0.1321 v 42.3954 h -43.8482 z m 48.4708,42.3955 q 4.7546,0 8.7168,-2.2453 4.0943,-2.3773 6.3395,-6.3395 2.3773,-4.0942 2.3773,-8.7168 0,-4.7546 -2.3773,-8.7168 -2.2452,-4.0943 -6.3395,-6.4716 -3.9622,-2.3773 -8.7168,-2.3773 h -4.6226 v 34.9993 z m 139.0728,41.4709 q 9.9055,0 15.7167,-8.0565 5.8112,-8.0564 7.5282,-19.5468 h 8.1885 q -1.849,14.2639 -9.3772,24.3015 -4.2263,5.547 -9.6413,8.3206 -5.2829,2.6414 -11.7545,3.4339 -6.3395,0.7924 -16.6412,0.7924 -14.528,0 -23.6411,-2.7735 -8.9809,-2.9056 -15.4525,-9.3772 -12.679,-12.679 -12.679,-34.8673 0,-23.3769 11.3583,-34.7352 7.396,-7.3961 16.5091,-9.7734 9.113,-2.3773 23.9052,-2.3773 13.6035,0 22.0562,1.9811 8.5847,1.849 13.9997,8.0564 4.4905,5.1509 6.9999,12.4149 2.5094,7.264 2.9056,14.396 h -7.5282 q -0.5283,-5.9433 -2.9056,-12.1508 -2.2452,-6.3395 -7.1319,-10.8299 -4.8867,-4.6226 -12.4149,-4.6226 -7.1319,0 -11.4903,6.2074 -3.8301,4.8867 -5.8112,14.396 -1.4528,7.264 -1.4528,17.0374 0,15.4525 3.698,24.9618 4.7546,12.8111 15.0563,12.8111 z m 37.9048,-83.8664 h 44.9049 v 41.3389 h 29.1881 v -41.3389 h 44.9048 v 92.4511 h -44.9048 v -42.2633 h -29.1881 v 42.2633 h -44.9049 z m 126.394,0 h 96.0171 v 7.7923 h -49.5274 v 34.2069 h 24.3014 v 7.9244 h -24.3014 v 34.6031 h 49.5274 v 7.9244 h -96.0171 z m 168.5253,33.1504 q 15.7167,4.2263 23.509,11.2262 7.7923,6.8678 7.7923,17.9619 0,8.8489 -5.547,15.8487 -5.5471,6.9999 -16.3771,10.9621 -10.6979,3.9622 -26.0184,3.9622 -18.094,0 -31.9616,-4.6226 -13.7356,-4.7546 -21.5279,-11.4903 l 4.3584,-5.9433 q 6.8678,5.415 17.3015,9.2451 10.4338,3.8301 22.4525,3.8301 7.7923,0 11.7545,-2.2452 4.0942,-2.2453 4.0942,-6.3395 0,-7.132 -14.1318,-11.0941 l -17.1695,-5.0188 q -13.9997,-4.2264 -21.66,-11.7545 -7.5281,-7.5282 -7.5281,-17.8299 0,-8.5847 5.415,-15.5846 5.415,-6.9999 15.7167,-10.962 10.4337,-4.0943 24.9618,-4.0943 13.8676,0 25.49,3.1697 11.7545,3.1698 19.1506,7.6603 l -4.3584,6.0753 q -6.2074,-3.5659 -14.9242,-6.0753 -8.5848,-2.5094 -18.094,-2.5094 -8.3206,0 -12.8111,2.6415 -4.3584,2.5093 -4.3584,6.9998 0,3.4339 3.3018,6.0754 3.3018,2.5094 12.5469,5.0188 z m 59.5651,-25.3581 h -34.7352 v -7.7923 h 115.828 v 7.7923 h -34.8673 v 84.6588 h -46.2255 z m 87.5645,-7.7923 h 88.3569 q 6.4715,0 11.8865,3.3019 5.5471,3.1697 8.7169,8.7168 3.3018,5.415 3.3018,11.8865 0,8.5848 -5.2829,15.5847 -5.283,6.9998 -13.3394,8.9809 7.1319,1.9811 11.6224,7.5282 4.6226,5.547 4.6226,12.5469 v 23.9052 h -44.2445 v -28.6598 q 0,-4.2263 -1.5849,-6.6037 -1.849,-2.7735 -4.2263,-4.0942 -2.6415,-1.4528 -5.9433,-2.1132 -3.4339,-0.6604 -6.4716,-0.7924 l -3.5659,-0.1321 v 42.3954 h -43.8483 z m 48.4708,42.3955 q 4.7546,0 8.7168,-2.2453 4.0943,-2.3773 6.3395,-6.3395 2.3774,-4.0942 2.3774,-8.7168 0,-4.7546 -2.3774,-8.7168 -2.2452,-4.0943 -6.3395,-6.4716 -3.9622,-2.3773 -8.7168,-2.3773 h -4.6225 v 34.9993 z m 102.0924,-42.3955 h 38.5653 l 40.9426,92.4511 h -49.9236 l -13.8676,-30.6409 h -29.0561 l -11.8866,30.6409 h -9.6413 z m 12.0186,53.7537 -12.0186,-26.8108 -10.4338,26.8108 z m 77.2627,-45.9614 h -34.7352 v -7.7923 h 115.8281 v 7.7923 h -34.8673 v 84.6588 h -46.2256 z m 130.6202,85.3192 q -17.6977,0 -31.9616,-5.415 -14.2639,-5.415 -22.5845,-15.9808 -8.1885,-10.6979 -8.1885,-25.6222 0,-14.7922 8.3206,-25.358 8.3206,-10.5658 22.4524,-15.9808 14.2639,-5.5471 31.9616,-5.5471 17.5657,0 31.6976,5.5471 14.2638,5.415 22.4524,15.9808 8.3206,10.5658 8.3206,25.358 0,14.9243 -8.3206,25.6222 -8.1886,10.5658 -22.4524,15.9808 -14.1319,5.415 -31.6976,5.415 z m 0,-7.7923 q 5.5471,0 8.1886,-5.0188 2.2452,-3.8301 3.0376,-13.6035 0.3963,-5.1509 0.3963,-20.6034 0,-15.5846 -0.6604,-22.0562 -0.3962,-7.9244 -2.9056,-12.0186 -2.6415,-5.0188 -8.0565,-5.0188 -5.547,0 -8.3206,5.0188 -2.2452,3.9622 -2.9056,12.0186 -0.5283,6.8678 -0.5283,22.0562 0,17.1695 0.3963,20.6034 0.5282,9.113 2.9056,13.6035 2.7735,5.0188 8.4526,5.0188 z m 68.9421,-85.3192 h 88.3568 q 6.4716,0 11.8866,3.3019 5.547,3.1697 8.7168,8.7168 3.3018,5.415 3.3018,11.8865 0,8.5848 -5.2829,15.5847 -5.2829,6.9998 -13.3394,8.9809 7.132,1.9811 11.6224,7.5282 4.6226,5.547 4.6226,12.5469 v 23.9052 h -44.2445 v -28.6598 q 0,-4.2263 -1.5848,-6.6037 -1.8491,-2.7735 -4.2264,-4.0942 -2.6414,-1.4528 -5.9433,-2.1132 -3.4338,-0.6604 -6.4715,-0.7924 l -3.566,-0.1321 v 42.3954 h -43.8482 z m 48.4708,42.3955 q 4.7546,0 8.7168,-2.2453 4.0942,-2.3773 6.3395,-6.3395 2.3773,-4.0942 2.3773,-8.7168 0,-4.7546 -2.3773,-8.7168 -2.2453,-4.0943 -6.3395,-6.4716 -3.9622,-2.3773 -8.7168,-2.3773 h -4.6226 v 34.9993 z"
       style="display:inline;stroke:#000000;stroke-opacity:1;fill:#ffffff;fill-opacity:1;stroke-width:6.48300001;stroke-dasharray:none" /></g></svg>
